# xmcd CD database file
#
# Track frame offsets:
#	150
#	9646
#	20313
#	33323
#	45978
#	62380
#	74845
#	83930
#	94144
#	105517
#	119895
#	130194
#
# Disc length: 1855 seconds
#
# Revision: 0
# Processed by: cddbd v1.5.2PL0 Copyright (c) Steve Scherf et al.
# Submitted via: CDex 1.70beta2
#
DISCID=9c073d0c
DTITLE=Bonde Do Role - With Lasers
DYEAR=2007
DGENRE=Baile Funk
TTITLE0=Bondallica
TTITLE1=Caminhao de Gas
TTITLE2=Danca do Zumbi
TTITLE3=Divine Gosa
TTITLE4=Gasolina
TTITLE5=Geremia
TTITLE6=James Bonde
TTITLE7=Marina do Bairro
TTITLE8=Office Boy
TTITLE9=Quero Te Amar
TTITLE10=Solta o Frango
TTITLE11=Tieta
EXTD=YEAR: 2007
EXTT0=
EXTT1=
EXTT2=
EXTT3=
EXTT4=
EXTT5=
EXTT6=
EXTT7=
EXTT8=
EXTT9=
EXTT10=
EXTT11=
PLAYORDER=
